<?xml version="1.0" standalone="no"?>
<!DOCTYPE svg PUBLIC "-//W3C//DTD SVG 20010904//EN"
 "http://www.w3.org/TR/2001/REC-SVG-20010904/DTD/svg10.dtd">
<svg version="1.0" xmlns="http://www.w3.org/2000/svg"
 width="512.000000pt" height="512.000000pt" viewBox="0 0 512.000000 512.000000"
 preserveAspectRatio="xMidYMid meet">

<g transform="translate(0.000000,512.000000) scale(0.100000,-0.100000)"
fill="#31D6D6" stroke="none">
<path d="M2367 4786 c-115 -41 -146 -102 -192 -381 -20 -115 -38 -222 -41
-237 l-5 -26 -387 -5 c-432 -4 -443 -6 -587 -76 -195 -96 -339 -305 -361 -523
-6 -63 -9 -69 -33 -75 -151 -36 -232 -200 -167 -339 38 -82 128 -144 209 -144
23 0 26 -5 32 -42 3 -24 53 -563 110 -1198 68 -747 111 -1171 120 -1200 28
-82 95 -152 182 -193 44 -20 65 -22 279 -25 230 -3 232 -3 258 20 38 32 39 83
2 115 -26 22 -32 23 -234 23 -238 0 -271 8 -316 77 -26 38 -27 54 -131 1188
-57 633 -107 1169 -109 1193 l-6 42 771 0 770 0 24 25 c39 38 27 102 -22 124
-17 8 -276 11 -886 11 -912 1 -880 -1 -905 47 -19 35 -14 63 17 94 l29 29 820
0 c814 0 819 0 846 21 20 16 26 29 26 59 0 30 -6 43 -26 59 -26 21 -33 21
-765 21 l-739 0 0 28 c0 51 30 155 62 214 38 71 145 175 214 207 117 56 94 54
747 60 588 6 609 7 623 25 16 23 18 69 4 96 -16 29 -66 40 -192 40 -118 0
-118 0 -113 23 3 12 21 114 40 227 45 261 35 250 211 250 119 0 126 1 149 25
16 15 25 36 25 55 0 19 -9 40 -25 55 -23 24 -29 25 -157 25 -85 -1 -147 -6
-171 -14z"/>
<path d="M3419 4389 c-345 -33 -627 -262 -732 -594 -48 -152 -58 -295 -31
-436 90 -474 542 -787 1017 -704 332 58 592 294 693 631 23 76 27 108 27 219
1 265 -87 482 -267 652 -185 177 -433 258 -707 232z m316 -183 c308 -98 525
-410 502 -719 -32 -404 -318 -677 -712 -679 -342 -1 -605 195 -697 519 -32
114 -32 289 0 393 40 127 88 206 182 301 114 115 236 182 385 209 88 16 250 4
340 -24z"/>
<path d="M3461 3974 c-19 -25 -21 -40 -21 -200 l0 -174 -174 0 c-160 0 -175
-2 -200 -21 -37 -29 -37 -89 0 -118 25 -19 40 -21 200 -21 l174 0 0 -174 c0
-160 2 -175 21 -200 28 -35 80 -36 114 -1 25 24 25 27 25 200 l0 175 174 0
c160 0 175 2 200 21 20 16 26 29 26 59 0 30 -6 43 -26 59 -25 19 -40 21 -200
21 l-174 0 0 174 c0 160 -2 175 -21 200 -16 20 -29 26 -59 26 -30 0 -43 -6
-59 -26z"/>
<path d="M2275 2450 c-145 -38 -242 -97 -349 -211 -116 -123 -176 -260 -192
-434 -8 -88 5 -128 46 -145 l28 -12 -29 -56 c-62 -119 -61 -269 1 -391 l29
-59 -24 -6 c-45 -11 -59 -47 -52 -136 23 -292 201 -533 468 -634 122 -46 164
-48 989 -44 l775 3 80 27 c116 40 199 92 290 183 133 133 200 279 212 459 5
83 4 93 -17 118 -12 16 -30 28 -40 28 -17 0 -15 8 16 75 61 128 57 273 -12
391 l-24 42 25 6 c46 12 59 47 52 144 -21 314 -238 574 -543 652 -74 19 -113
20 -868 19 -739 0 -796 -1 -861 -19z m1695 -155 c157 -42 287 -149 358 -295
23 -47 45 -109 50 -137 l9 -53 -1243 0 -1244 0 0 23 c0 33 28 124 55 178 63
123 183 225 320 271 l80 28 780 0 c650 0 789 -3 835 -15z m286 -672 c209 -112
163 -431 -67 -473 -38 -7 -409 -10 -1085 -8 l-1029 3 -54 30 c-92 51 -138 138
-128 244 10 110 73 190 177 222 14 4 502 7 1085 6 l1060 -2 41 -22z m123 -686
c-20 -108 -75 -213 -154 -292 -62 -61 -119 -97 -214 -134 l-66 -26 -770 -3
c-850 -3 -849 -3 -975 60 -76 38 -172 125 -222 202 -38 60 -78 167 -78 212 l0
24 1244 0 1243 0 -8 -43z"/>
</g>
</svg>
